<?xml version="1.0" encoding="UTF-8"?>
<!DOCTYPE svg PUBLIC "-//W3C//DTD SVG 1.1//EN" "http://www.w3.org/Graphics/SVG/1.1/DTD/svg11.dtd">
<!-- Creator: CorelDRAW 2021 (64 Bit) -->
<svg xmlns="http://www.w3.org/2000/svg" xml:space="preserve" width="78.6217mm" height="11.699mm" version="1.1" style="shape-rendering:geometricPrecision; text-rendering:geometricPrecision; image-rendering:optimizeQuality; fill-rule:evenodd; clip-rule:evenodd"
viewBox="0 0 7843.37 1167.1"
 xmlns:xlink="http://www.w3.org/1999/xlink"
 xmlns:xodm="http://www.corel.com/coreldraw/odm/2003">
 <defs>
  <style type="text/css">
   <![CDATA[
    .fil3 {fill:#1890FF}
    .fil9 {fill:#2E3779}
    .fil10 {fill:#2E387A}
    .fil6 {fill:#2F387A}
    .fil7 {fill:#303573}
    .fil5 {fill:#303672}
    .fil8 {fill:#313572}
    .fil4 {fill:#313573}
    .fil2 {fill:#60B3FF}
    .fil0 {fill:#4D4D4D;fill-rule:nonzero}
    .fil1 {fill:#60B3FF;fill-opacity:0.501961}
   ]]>
  </style>
 </defs>
 <g id="Camada_x0020_1">
  <metadata id="CorelCorpID_0Corel-Layer"/>
  <path class="fil0" d="M2390.44 284.15l161.34 0 -168.92 871.08 -161.33 0 31.55 -184.52c-34.41,61.76 -78.99,109.81 -133.98,144.39 -55,34.57 -117.6,52.01 -187.54,52.01 -114.77,0 -201.24,-41.46 -259.61,-124.08 -58.38,-82.61 -75,-190.29 -49.62,-323.33 16.86,-87.65 49.16,-165.77 96.69,-234.15 47.51,-68.36 104.86,-120.89 172.04,-157.84 67.16,-36.95 138.26,-55.42 213.49,-55.42 69.92,0 126.23,17.41 168.65,52.25 42.4,34.86 68.96,82.89 79.92,144.13l37.33 -184.51 0 -0.02zm-572.67 638.26c34.24,49.11 87.27,73.64 159.13,73.64 71.87,0 135.12,-25.62 189.49,-76.83 54.38,-51.21 89.28,-118.24 104.96,-201.13 15.12,-81.81 5.62,-148.07 -28.77,-198.74 -34.39,-50.7 -86.91,-76.04 -157.32,-76.04 -71.39,0 -133.88,24.83 -187.68,74.43 -53.81,49.64 -89.22,116.95 -105.96,201.95 -16.78,86.04 -8.08,153.62 26.16,202.71l0 0zm1173 -913.83l-222.3 1146.65 -165.68 0 222.34 -1146.65 165.66 0 -0.02 0zm938.46 275.57l-398.42 435.55 229.52 435.54 -189.57 0 -160.76 -304.1 -278.36 304.1 -189.55 0 399.15 -435.54 -230.24 -435.55 189.56 0 160.77 304.08 278.34 -304.08 189.56 0 0 0zm781.32 0l161.33 0 -168.91 871.08 -161.33 0 31.53 -184.52c-34.41,61.76 -78.97,109.81 -133.97,144.39 -55.02,34.57 -117.59,52.01 -187.53,52.01 -114.78,0 -201.26,-41.46 -259.62,-124.08 -58.39,-82.61 -75.01,-190.29 -49.61,-323.33 16.85,-87.65 49.16,-165.77 96.69,-234.15 47.51,-68.36 104.83,-120.89 172.02,-157.84 67.18,-36.95 138.26,-55.42 213.51,-55.42 69.92,0 126.22,17.41 168.64,52.25 42.4,34.86 68.97,82.89 79.93,144.13l37.32 -184.51 0 -0.02zm-572.66 638.26c34.22,49.11 87.27,73.64 159.13,73.64 71.87,0 135.1,-25.62 189.49,-76.83 54.38,-51.21 89.27,-118.24 104.96,-201.13 15.1,-81.81 5.61,-148.07 -28.77,-198.74 -34.41,-50.7 -86.93,-76.04 -157.34,-76.04 -71.39,0 -133.86,24.83 -187.66,74.43 -53.83,49.64 -89.23,116.95 -105.96,201.95 -16.8,86.04 -8.09,153.62 26.16,202.71l0 0z"/>
  <polygon class="fil1" points="1480.44,1148.12 859.62,-0.01 620.82,-0.01 1241.66,1148.12 "/>
  <polygon class="fil2" points="47.75,1148.12 644.7,-0.01 859.62,-0.01 883.48,47.76 859.62,47.76 286.54,1146.15 "/>
  <polygon class="fil3" points="-0,1100.36 573.08,-0.01 815.79,-0.01 238.78,1100.36 "/>
  <polygon class="fil2" points="620.82,1148.12 1193.9,47.76 1436.62,47.76 859.62,1148.12 "/>
  <polygon class="fil3" points="573.08,1100.36 1146.16,-0.01 1388.87,-0.01 811.86,1100.36 "/>
  <g id="_2262005882512">
   <path class="fil4" d="M5208.26 408.34l0 202.19c115.9,0 91.97,28.31 91.97,-156.24 0,-80.66 -14.4,-124.06 73.58,-124.06 37.44,0 50.59,35.71 50.59,73.52l0 206.77 87.37 0 0 -215.96c0,-88.89 124.17,-81.34 124.17,-13.79l0 229.75c58.52,0 91.98,8.52 91.98,-13.79 0,-89.21 12.09,-239.01 -30.17,-300.7 -39.39,-57.5 -128.99,-73.26 -185.85,-43.79 -4.36,2.26 -14.57,9.07 -19.45,12.72l-17.46 19.32c-16.74,-4.47 -9.84,-4.26 -22.4,-14.39 -86.08,-69.36 -244.33,-29.49 -244.33,138.44z"/>
   <path class="fil5" d="M7277.71 321.04c89.85,0 94.33,137.77 58.05,191.26 -28.69,42.29 -138.64,43.96 -135.36,-85.18 1.23,-48.37 21.13,-106.09 77.3,-106.09zm78.17 -32.16c-99.66,-114.57 -252.93,-23.46 -252.93,128.66 0,62.1 2.51,103.15 42.59,150.44 64.12,75.67 306.92,74.84 306.92,-99.9l0 -340.02c-116.38,0 -96.58,49.92 -96.58,160.82z"/>
   <path class="fil5" d="M5939.47 316.45c41.98,0 74.39,28.08 78.17,73.51l-156.36 0c1.55,-18.63 10.96,-41.13 21.67,-51.87 10.38,-10.42 37.79,-21.65 56.51,-21.65zm-179.36 114.86c0,50.58 12.66,101.42 47.51,136.33 55.82,55.91 162.43,69.47 240.4,22.68 16.18,-9.72 25.39,-17.61 36.75,-32.2 11.82,-15.17 22.98,-26.35 24.85,-48.69 -20.3,0 -75.3,-2.67 -91.63,0.35 -30.86,5.72 -7.98,27.22 -83.12,27.22 -47.62,0 -74.49,-38.4 -78.18,-82.71l262.13 0c0,-124.21 -44.2,-215.95 -179.35,-215.95 -112.87,0 -179.36,79.41 -179.36,192.98z"/>
   <path class="fil6" d="M6233.78 863.24c46.77,0 78.18,26.82 78.18,73.52l-156.36 0c9.47,-19.72 12.35,-73.52 78.17,-73.52zm-174.75 110.28c0,30.51 3.15,55.06 11.88,80.03 9.96,28.48 16.05,38.18 35.12,56.81 108.13,105.69 290.41,31.28 297.92,-58.73 -138.22,0 -74.09,-1.8 -120.87,21.68 -50.59,25.39 -125.73,5.91 -127.46,-72.22l243.73 0c7.53,0 13.8,-2.75 13.8,-9.19 0,-127.57 -51.07,-206.77 -183.95,-206.77 -58.65,0 -95.64,22.92 -125.47,53.84 -27.92,28.94 -44.68,79 -44.68,134.55z"/>
   <path class="fil4" d="M7664.01 537c-117.79,0 -117.79,-220.55 0,-220.55 30.15,0 49.56,14.82 62.59,33.95 25.56,37.54 25.56,115.11 0,152.64 -13.03,19.12 -32.44,33.96 -62.59,33.96zm-183.95 -133.25l0 45.95c0,82.91 72.48,165.41 156.36,165.41 64.2,0 114.92,4.25 160.47,-51.04 48.3,-58.66 46.48,-90.08 46.48,-160.33 0,-22.36 -9.24,-53.93 -17.04,-70.28 -78.95,-165.49 -346.26,-110.1 -346.26,70.28z"/>
   <path class="fil7" d="M6900.61 546.19c-56.2,0 -56.58,-62.41 -29.89,-80.41 15.22,-10.28 88.36,-25.28 108.07,-29.87 0,42.26 2.1,110.28 -78.18,110.28zm-133.36 -183.79l96.57 0c1.55,-69.16 114.97,-50.28 114.97,-18.39 0,58.38 -55.62,30.1 -137.55,55.56 -69.35,21.56 -83.19,58.02 -83.19,123.64 0,96.21 106.13,91.9 160.95,91.9 83.92,0 156.36,-44.95 156.36,-128.65 0,-85.97 16.26,-190.36 -39.69,-222.25 -68.08,-38.79 -255.51,-56.83 -268.42,98.18z"/>
   <path class="fil5" d="M6380.95 426.73c0,104.32 50.42,188.39 151.76,188.39 72.5,0 113.4,2.51 166.73,-63.15 16.73,-20.59 28.64,-50.78 31.02,-79.29l-101.18 0c-10.22,21.28 -8.44,64.33 -68.97,64.33 -106.16,0 -90.63,-215.96 -9.2,-215.96 30.65,0 72.35,-0.21 73.58,55.14l105.77 0c-4.19,-187.87 -349.5,-200.58 -349.5,50.55z"/>
   <path class="fil6" d="M5617.55 1152.72l101.18 0c11.29,-48.44 121.95,-331.75 124.16,-358.4 -110.56,0 -100.92,-11.41 -127.17,79.71 -8.29,28.78 -15.77,55.92 -24.02,81.69 -8.16,25.49 -17.69,56.92 -23.56,82.13l-4.28 -9.52c-0.34,-0.92 -0.88,-2.32 -1.24,-3.35l-63.47 -230.67 -101.17 0c1.59,19.06 21.02,71.96 28.25,91.24 12.9,34.38 89.6,246.6 91.31,267.16z"/>
   <path class="fil6" d="M5208.26 743.78l0 408.94 91.97 0 0 -482.46 -13.79 0c-42.91,0 -78.18,29.92 -78.18,73.52z"/>
   <path class="fil8" d="M6160.21 394.56l0 215.96c104.98,0 97.28,7.96 96.97,-31.77 -0.12,-15.44 -0.4,-30.85 -0.4,-46.35 -0.02,-152.72 -16.15,-197.58 110.38,-197.58l0 -96.49c-85.99,0 -147.62,20.23 -186.74,89.11 -7.1,12.5 -20.2,49.89 -20.2,67.12z"/>
   <path class="fil9" d="M5842.89 950.54l0 202.18 96.58 0 0 -188.39c0,-87.1 60.22,-82.71 110.37,-82.71l0 -96.49c-61.43,0 -109.27,6.14 -152.94,44.77 -27.1,23.97 -54,71.64 -54,120.64z"/>
   <polygon class="fil10" points="5369.22,1152.72 5465.8,1152.72 5465.8,794.32 5369.22,794.32 "/>
   <path class="fil10" d="M5369.22 752.96c0,10.58 3.2,13.79 13.8,13.79l82.78 0 0 -96.5 -96.58 0 0 82.71z"/>
  </g>
 </g>
</svg>
